<svg id="SvgjsSvg1001" width="288" height="288" xmlns="http://www.w3.org/2000/svg" version="1.1" xmlns:xlink="http://www.w3.org/1999/xlink" xmlns:svgjs="http://svgjs.com/svgjs"><defs id="SvgjsDefs1002"></defs><g id="SvgjsG1008"><svg xmlns="http://www.w3.org/2000/svg" id="Layer_1" x="0" y="0" enable-background="new 0 0 256 256" version="1.1" viewBox="0 0 256 256" xml:space="preserve" width="288" height="288"><rect width="145.84" height="76.67" x="55.08" y="166.33" fill="#7783b8" class="svgShape color1c868e-0 selectable"></rect><rect width="123.65" height="76.66" x="4.33" y="89.67" fill="#7783b8" class="svgShape color1c868e-1 selectable"></rect><rect width="123.64" height="76.66" x="127.98" y="89.67" fill="#727db0" class="svgShape color1c868e-2 selectable"></rect><path fill="#9da7cc" d="M127.98 89.67v55.66H32c-2.761 0-5-2.239-5-5V89.67H127.98zM251.62 89.67v55.66h-95.97c-2.761 0-5-2.239-5-5V89.67H251.62z" class="svgShape color40c4df-3 selectable"></path><path fill="#7783b8" d="M251.67 166.33V238c0 2.76-2.24 5-5 5h-45.84v-76.67H251.67zM55.08 166.33V243H9.33c-2.76 0-5-2.24-5-5v-71.67H55.08z" class="svgShape color1c868e-4 selectable"></path><rect width="145.84" height="76.67" x="55.08" y="13" fill="#7783b8" class="svgShape color1c868e-5 selectable"></rect><path fill="#7783b8" d="M251.67 18v71.67h-50.84V13h45.84C249.43 13 251.67 15.24 251.67 18zM55.08 13v76.67H4.33V18c0-2.76 2.24-5 5-5H55.08z" class="svgShape color1c868e-6 selectable"></path><path fill="#9da7cc" d="M200.92 166.33V224H83.08c-2.761 0-5-2.239-5-5v-52.67H200.92zM251.67 166.33V224h-22.84c-2.761 0-5-2.239-5-5v-52.67H251.67zM55.08 166.33V224H32.33c-2.76 0-5-2.24-5-5v-52.67H55.08zM200.92 13v57.67H83.08c-2.761 0-5-2.239-5-5V13H200.92zM251.67 18v52.67h-22.84c-2.761 0-5-2.239-5-5V13h22.84C249.431 13 251.67 15.239 251.67 18zM55.08 13v57.67H32.33c-2.761 0-5-2.239-5-5V13H55.08z" class="svgShape color40c4df-7 selectable"></path><path fill="#fff" d="M157.281 231.313c-2.277-2.462-2.127-6.303.336-8.58l19.54-18.067-19.54-18.067c-2.463-2.276-2.613-6.118-.336-8.58 2.277-2.462 6.117-2.613 8.58-.336l24.363 22.524c2.597 2.4 2.6 6.513 0 8.917l-24.363 22.524C163.4 233.924 159.559 233.777 157.281 231.313zM90.14 231.649l-24.363-22.524c-2.597-2.4-2.6-6.513 0-8.917l24.363-22.524c2.462-2.277 6.303-2.127 8.58.336 2.277 2.462 2.127 6.303-.336 8.58l-19.54 18.067 19.54 18.067c2.463 2.276 2.613 6.118.336 8.58C96.44 233.778 92.599 233.924 90.14 231.649zM111.959 232.45c-2.904-1.677-3.899-5.39-2.223-8.294l26.01-45.049c1.677-2.903 5.388-3.899 8.294-2.223 2.904 1.677 3.899 5.39 2.223 8.294l-26.01 45.05C118.577 233.131 114.865 234.126 111.959 232.45z" class="svgShape colorffffff-8 selectable"></path><g><path fill="#d8d6d7" d="M156.58 224c-1.41 2.26-1.2 5.26.7 7.31 2.28 2.47 6.12 2.61 8.58.34l8.28-7.65H156.58zM65.78 209.13l12.3 11.37v-31.67l-12.3 11.38C63.18 202.61 63.18 206.72 65.78 209.13zM81.86 224l8.28 7.65c2.46 2.27 6.3 2.13 8.58-.34 1.9-2.05 2.11-5.05.7-7.31H81.86zM109.74 224.16c-1.68 2.9-.69 6.61 2.22 8.29 2.9 1.68 6.62.68 8.29-2.22l3.6-6.23h-14.02L109.74 224.16z" class="svgShape colord8d6d7-10 selectable"></path></g><g><path fill="#491352" d="M246.667,11c-11.326,0-227.5,0-237.334,0c-3.859,0-7,3.141-7,7c0,6.402,0,214.079,0,220c0,3.859,3.141,7,7,7
			c11.01,0,227.012,0,237.334,0c3.859,0,7-3.141,7-7c0,0,0-219.759,0-220C253.667,14.141,250.526,11,246.667,11z M57.083,15h141.75
			v72.667c-7.368,0-134.349,0-141.75,0V15z M249.625,91.667v72.666c-7.721,0-118.761,0-119.643,0V91.667
			C152.413,91.667,225.112,91.667,249.625,91.667z M6.333,18c0-1.654,1.346-3,3-3h43.75v72.667H6.333V18z M6.333,91.667
			c51.929,0,60.746,0,119.644,0v72.666c-0.88,0-111.917,0-119.644,0V91.667z M53.083,241H9.333c-1.654,0-3-1.346-3-3v-69.667h46.75
			V241z M198.833,241H57.083v-72.667c7.398,0,134.379,0,141.75,0V241z M249.667,238c0,1.654-1.346,3-3,3h-43.75v-72.667h46.75V238z
			 M249.667,87.667h-46.75V15h43.75c1.654,0,3,1.346,3,3V87.667z" class="svgShape color491352-12 selectable"></path><path fill="#491352" d="M161.741 235.259c1.961 0 3.927-.708 5.477-2.141l24.364-22.524c3.457-3.2 3.443-8.67-.001-11.854l-24.363-22.524c-3.266-3.02-8.385-2.82-11.406.447-3.021 3.269-2.82 8.385.447 11.406l17.952 16.599-17.952 16.598C150.849 226.268 154.451 235.259 161.741 235.259zM158.974 224.202l19.541-18.066c.856-.791.856-2.146 0-2.938l-19.541-18.067c-1.647-1.523-1.749-4.104-.226-5.753 1.524-1.65 4.104-1.75 5.755-.226 26.57 24.564 25.669 23.06 25.669 25.515 0 2.456.873.975-25.669 25.514C160.561 233.829 155.029 227.853 158.974 224.202zM94.258 235.259c4.583 0 8.248-3.793 8.069-8.383-.171-4.391-1.284-4.407-20.538-22.209l17.952-16.599c3.268-3.021 3.468-8.138.446-11.407-3.02-3.266-8.139-3.466-11.405-.446l-24.364 22.524c-3.457 3.2-3.443 8.67.001 11.854C90.747 234.935 90.046 235.261 94.258 235.259zM67.134 201.677c26.274-24.291 24.928-23.604 27.126-23.604 3.695 0 5.478 4.551 2.767 7.059-21.177 19.58-20.184 18.302-20.184 19.536 0 1.237-.979-.03 20.184 19.535.798.738 1.261 1.743 1.304 2.83.142 3.602-4.174 5.609-6.832 3.149 0-.001-.001-.001-.001-.001l-24.363-22.524C65.396 206.049 65.385 203.294 67.134 201.677zM110.959 234.182C110.959 234.183 110.96 234.183 110.959 234.182c3.849 2.222 8.799.903 11.026-2.954l26.011-45.05c2.224-3.855.898-8.801-2.956-11.026-3.852-2.224-8.799-.898-11.025 2.955l-26.011 45.049C105.78 227.01 107.105 231.956 110.959 234.182zM111.469 225.155l26.01-45.049c1.123-1.944 3.618-2.611 5.563-1.49 1.944 1.122 2.612 3.617 1.49 5.562l-26.011 45.05c-1.121 1.942-3.616 2.613-5.563 1.49C111.015 229.594 110.347 227.099 111.469 225.155z" class="svgShape color491352-13 selectable"></path></g></svg></g></svg>