<svg id="SvgjsSvg1223" width="288" height="288" xmlns="http://www.w3.org/2000/svg" version="1.1" xmlns:xlink="http://www.w3.org/1999/xlink" xmlns:svgjs="http://svgjs.com/svgjs"><defs id="SvgjsDefs1224"></defs><g id="SvgjsG1225"><svg xmlns="http://www.w3.org/2000/svg" id="Layer_1" x="0" y="0" enable-background="new 0 0 256 256" version="1.1" viewBox="0 0 256 256" xml:space="preserve" width="288" height="288"><rect width="27.66" height="84.16" x="114.17" y="147.42" fill="#d8d6d7" class="svgShape colord8d6d7-0 selectable"></rect><rect width="10.74" height="84.16" x="131.09" y="147.42" fill="#fff" class="svgShape colorffffff-1 selectable"></rect><path fill="#d8d6d7" d="M245.36,165.647H10.64c-2.761,0-5-2.239-5-5V7.75c0-2.761,2.239-5,5-5h234.72c2.761,0,5,2.239,5,5v152.897
		C250.36,163.408,248.121,165.647,245.36,165.647z" class="svgShape colord8d6d7-2 selectable"></path><path fill="#adbbff" d="M237.36,20.75v126.9c0,2.76-2.24,5-5,5H23.64c-2.76,0-5-2.24-5-5V20.75c0-2.76,2.24-5,5-5h208.72
		C235.12,15.75,237.36,17.99,237.36,20.75z" class="svgShape color56c1b3-3 selectable"></path><path fill="#dae0f5" d="M237.36,20.75v126.9c0,2.76-2.24,5-5,5H45.39c-2.76,0-5-2.24-5-5V20.75c0-2.76,2.24-5,5-5h186.97
		C235.12,15.75,237.36,17.99,237.36,20.75z" class="svgShape color7befe4-4 selectable"></path><path fill="#d8d6d7" d="M191.67,236.58v11.67c0,2.76-2.24,5-5,5H69.33c-2.76,0-5-2.24-5-5v-11.67c0-2.76,2.24-5,5-5h117.34
		C189.43,231.58,191.67,233.82,191.67,236.58z" class="svgShape colord8d6d7-5 selectable"></path><path fill="#fff" d="M191.67,236.58v11.67c0,2.76-2.24,5-5,5H85.33c-2.76,0-5-2.24-5-5v-11.67c0-2.76,2.24-5,5-5h101.34
		C189.43,231.58,191.67,233.82,191.67,236.58z" class="svgShape colorffffff-6 selectable"></path><path fill="#aeb9ef" d="M188.833 135.685h-7c-2.761 0-5-2.239-5-5V37.711c0-2.761 2.239-5 5-5h7c2.761 0 5 2.239 5 5v92.974C193.833 133.447 191.595 135.685 188.833 135.685zM160.167 135.685h-7c-2.761 0-5-2.239-5-5V84.634c0-2.761 2.239-5 5-5h7c2.761 0 5 2.239 5 5v46.052C165.167 133.447 162.928 135.685 160.167 135.685zM131.5 135.685h-7c-2.761 0-5-2.239-5-5V54.634c0-2.761 2.239-5 5-5h7c2.761 0 5 2.239 5 5v76.052C136.5 133.447 134.261 135.685 131.5 135.685zM102.833 135.685h-7c-2.761 0-5-2.239-5-5V84.634c0-2.761 2.239-5 5-5h7c2.761 0 5 2.239 5 5v46.052C107.833 133.447 105.595 135.685 102.833 135.685zM74.167 135.685h-7c-2.761 0-5-2.239-5-5v-16.052c0-2.761 2.239-5 5-5h7c2.761 0 5 2.239 5 5v16.052C79.167 133.447 76.928 135.685 74.167 135.685z" class="svgShape color40c4df-7 selectable"></path><g><path fill="#491352" d="M245.36,0.75H10.64c-3.859,0-7,3.14-7,7v152.896c0,3.86,3.141,7,7,7h101.527v61.932H69.333
			c-3.859,0-7,3.14-7,7v11.671c0,3.86,3.141,7,7,7h117.334c3.859,0,7-3.14,7-7v-11.671c0-3.86-3.141-7-7-7h-42.834v-61.932H245.36
			c3.859,0,7-3.14,7-7V7.75C252.36,3.89,249.22,0.75,245.36,0.75z M186.667,233.579c1.654,0,3,1.346,3,3v11.671c0,1.654-1.346,3-3,3
			H69.333c-1.654,0-3-1.346-3-3v-11.671c0-1.654,1.346-3,3-3C75.756,233.579,180.65,233.579,186.667,233.579z M116.167,229.579
			v-61.932h23.666v61.932H116.167z M248.36,160.646c0,1.654-1.346,3-3,3c-4.221,0-223.361,0-234.721,0c-1.654,0-3-1.346-3-3V7.75
			c0-1.654,1.346-3,3-3H245.36c1.654,0,3,1.346,3,3V160.646z" class="svgShape color491352-9 selectable"></path><path fill="#491352" d="M232.36,13.75H23.641c-3.859,0-7,3.14-7,7v126.896c0,3.86,3.141,7,7,7h208.72c3.859,0,7-3.14,7-7V20.75
			C239.36,16.89,236.22,13.75,232.36,13.75z M235.36,147.646c0,1.654-1.346,3-3,3H23.641c-1.654,0-3-1.346-3-3V20.75
			c0-1.654,1.346-3,3-3h208.72c1.654,0,3,1.346,3,3V147.646z" class="svgShape color491352-10 selectable"></path><path fill="#491352" d="M188.833 30.711h-7c-3.859 0-7 3.14-7 7v92.974c0 3.86 3.141 7 7 7h7c3.859 0 7-3.14 7-7V37.711C195.833 33.852 192.692 30.711 188.833 30.711zM191.833 130.685c0 1.654-1.346 3-3 3h-7c-1.654 0-3-1.346-3-3V37.711c0-1.654 1.346-3 3-3h7c1.654 0 3 1.346 3 3V130.685zM160.167 77.634h-7c-3.859 0-7 3.14-7 7v46.051c0 3.86 3.141 7 7 7h7c3.859 0 7-3.14 7-7V84.634C167.167 80.774 164.026 77.634 160.167 77.634zM163.167 130.685c0 1.654-1.346 3-3 3h-7c-1.654 0-3-1.346-3-3V84.634c0-1.654 1.346-3 3-3h7c1.654 0 3 1.346 3 3V130.685zM131.5 47.634h-7c-3.859 0-7 3.14-7 7v76.051c0 3.86 3.141 7 7 7h7c3.859 0 7-3.14 7-7V54.634C138.5 50.774 135.359 47.634 131.5 47.634zM134.5 130.685c0 1.654-1.346 3-3 3h-7c-1.654 0-3-1.346-3-3V54.634c0-1.654 1.346-3 3-3h7c1.654 0 3 1.346 3 3V130.685zM102.833 77.634h-7c-3.859 0-7 3.14-7 7v46.051c0 3.86 3.141 7 7 7h7c3.859 0 7-3.14 7-7V84.634C109.833 80.774 106.692 77.634 102.833 77.634zM105.833 130.685c0 1.654-1.346 3-3 3h-7c-1.654 0-3-1.346-3-3V84.634c0-1.654 1.346-3 3-3h7c1.654 0 3 1.346 3 3V130.685zM74.167 107.634h-7c-3.859 0-7 3.14-7 7v16.051c0 3.86 3.141 7 7 7h7c3.859 0 7-3.14 7-7v-16.051C81.167 110.774 78.026 107.634 74.167 107.634zM77.167 130.685c0 1.654-1.346 3-3 3h-7c-1.654 0-3-1.346-3-3v-16.051c0-1.654 1.346-3 3-3h7c1.654 0 3 1.346 3 3V130.685zM30 31.917h62.667c2.642 0 2.646-4 0-4H30C27.358 27.917 27.354 31.917 30 31.917zM30 46.917h62.667c1.104 0 2-.896 2-2s-.896-2-2-2H30C27.358 42.917 27.354 46.917 30 46.917zM30 61.917h62.667c2.642 0 2.646-4 0-4H30C27.358 57.917 27.354 61.917 30 61.917zM79.167 72.917H30c-2.642 0-2.646 4 0 4h49.167c1.104 0 2-.896 2-2S80.271 72.917 79.167 72.917zM226.5 115.019h-22.974c-2.642 0-2.646 4 0 4H226.5C229.142 119.019 229.146 115.019 226.5 115.019zM226.5 124.352h-22.974c-2.642 0-2.646 4 0 4H226.5C229.142 128.352 229.146 124.352 226.5 124.352zM226.5 133.685h-22.974c-2.642 0-2.646 4 0 4H226.5C229.142 137.685 229.146 133.685 226.5 133.685z" class="svgShape color491352-11 selectable"></path></g></svg></g></svg>