<svg id="SvgjsSvg1175" width="288" height="288" xmlns="http://www.w3.org/2000/svg" version="1.1" xmlns:xlink="http://www.w3.org/1999/xlink" xmlns:svgjs="http://svgjs.com/svgjs"><defs id="SvgjsDefs1176"></defs><g id="SvgjsG1177"><svg xmlns="http://www.w3.org/2000/svg" id="Layer_1" x="0" y="0" enable-background="new 0 0 256 256" version="1.1" viewBox="0 0 256 256" xml:space="preserve" width="288" height="288"><path fill="#525fc2" d="M228.239,90.163v124.4H25.158v-124.4c0-8.87,6.64-16.2,15.23-17.26c0.71-0.09,1.44-0.14,2.17-0.14h168.28
		C220.449,72.763,228.239,80.553,228.239,90.163z" class="svgShape color1c868e-0 selectable"></path><path fill="#525fc2" d="M228.239,90.163v124.4H40.388V72.903c0.71-0.09,1.44-0.14,2.17-0.14h168.28
		C220.449,72.763,228.239,80.553,228.239,90.163z" class="svgShape color40c4df-1 selectable"></path><path fill="#525fc2" d="M250.298,220.633v4.67c0,10.06-8.15,18.22-18.21,18.22H21.309c-10.06,0-18.21-8.16-18.21-18.22v-4.67
		c0-3.35,2.72-6.07,6.07-6.07h235.06C247.579,214.563,250.298,217.283,250.298,220.633z" class="svgShape color56c1b3-2 selectable"></path><path fill="#a0aaff" d="M250.298,220.633v4.67c0,10.06-8.15,18.22-18.21,18.22H36.539c-10.06,0-18.21-8.16-18.21-18.22v-4.67
		c0-3.35,2.72-6.07,6.07-6.07h219.83C247.579,214.563,250.298,217.283,250.298,220.633z" class="svgShape color7befe4-3 selectable"></path><path fill="#525fc2" d="M154.828,214.563v5.111c0,5.172-4.201,9.373-9.373,9.373h-37.515c-5.172,0-9.373-4.201-9.373-9.373v-5.111
		H154.828z" class="svgShape color56c1b3-4 selectable"></path><path fill="#d8d6d7" d="M217.449,88.563v126h-181.5v-126c0-2.57,1.94-4.69,4.44-4.96c0.18-0.03,0.37-0.04,0.56-0.04h171.5
		C215.209,83.563,217.449,85.803,217.449,88.563z" class="svgShape colord8d6d7-5 selectable"></path><path fill="#e9e9e9" d="M217.449,88.563v126H51.178v-131h161.27C215.209,83.563,217.449,85.803,217.449,88.563z" class="svgShape colorffffff-6 selectable"></path><path fill="#6776d8" d="M228.239,90.163v124.4h-10.79v-126c0-2.76-2.24-5-5-5h-171.5c-0.19,0-0.38,0.01-0.56,0.04v-10.7
		c0.71-0.09,1.44-0.14,2.17-0.14h168.28C220.449,72.763,228.239,80.553,228.239,90.163z" class="svgShape color40c4df-7 selectable"></path><path fill="#525fc2" d="M235.503,48.647v39.741c0,8.979-26.689,16.258-59.611,16.258s-59.611-7.279-59.611-16.258V47.293
		L235.503,48.647z" class="svgShape color1c868e-8 selectable"></path><path fill="#535ebc" d="M135.559,143.646h-0.333c-2.761,0-5-2.239-5-5v-12.667c0-2.761,2.239-5,5-5h0.333c2.761,0,5,2.239,5,5v12.667
		C140.559,141.407,138.32,143.646,135.559,143.646z" class="svgShape color40c4df-9 selectable"></path><polygon fill="#93a1ff" points="252.882 40.519 176.799 70.991 98.903 40.519 176.799 12.479" class="svgShape color40c4df-10 selectable"></polygon><path fill="#491352" d="M253.573,38.642l-76.082-28.04c-0.441-0.163-0.925-0.164-1.369-0.005l-77.896,28.04
		c-1.733,0.624-1.768,3.073-0.051,3.744l16.107,6.301V70.77h-71.7c-10.697,0-19.4,8.703-19.4,19.4v122.396H9.192
		c-4.45,0-8.07,3.62-8.07,8.07v4.675c0,11.145,9.066,20.211,20.211,20.211h210.787c11.145,0,20.211-9.066,20.211-20.211v-4.675
		c0-4.45-3.62-8.07-8.07-8.07h-13.988V97.318c4.538-2.501,7.232-5.483,7.232-8.93V48.832l16.121-6.457
		C255.319,41.697,255.291,39.275,253.573,38.642z M133.225,101.78v17.493c-2.887,0.863-5,3.541-5,6.705v12.667c0,3.859,3.141,7,7,7
		h0.334c3.859,0,7-3.141,7-7v-12.667c0-3.284-2.278-6.041-5.334-6.791v-16.411c23.216,5.288,55.959,5.073,78.246-0.208V212.56
		h-177.5v-124c0-1.654,1.346-3,3-3h73.31v2.828C114.282,94.203,121.924,98.702,133.225,101.78z M133.225,97.608
		c-9.633-2.797-14.944-6.292-14.944-9.22V50.247l14.944,5.846V97.608z M135.225,122.979h0.334c1.654,0,3,1.346,3,3v12.667
		c0,1.654-1.346,3-3,3h-0.334c-1.654,0-3-1.346-3-3v-12.667C132.225,124.324,133.571,122.979,135.225,122.979z M152.855,216.57
		v3.106c0,4.065-3.307,7.373-7.372,7.373h-37.515c-4.065,0-7.373-3.308-7.373-7.373v-3.106H152.855z M27.182,90.17
		c0-8.492,6.908-15.4,15.4-15.4h71.7v6.79h-73.31c-3.86,0-7,3.141-7,7v124.006h-6.79V90.17z M244.26,216.566
		c2.244,0,4.07,1.826,4.07,4.07v4.675c0,8.938-7.272,16.211-16.211,16.211H21.332c-8.939,0-16.211-7.272-16.211-16.211v-4.675
		c0-2.244,1.826-4.07,4.07-4.07c0.168,0,14.154,0.005,87.404,0.005v3.106c0,6.271,5.102,11.373,11.373,11.373h37.515
		c6.271,0,11.372-5.102,11.372-11.373v-3.106C162.25,216.57,240.694,216.566,244.26,216.566z M219.472,212.566V101.527
		c2.468-0.702,4.749-1.473,6.8-2.314v113.353H219.472z M233.504,88.388c0,10.993-57.485,19.638-96.278,10.279v-41.01l38.846,15.196
		c0.474,0.186,1,0.184,1.472-0.006l55.961-22.414V88.388z M176.791,68.84L140.69,54.718l36.243-13.701
		c2.475-0.936,1.056-4.677-1.414-3.742l-40.388,15.269l-17.913-7.007c-0.143-0.077-0.294-0.138-0.455-0.178l-12.172-4.761
		l72.2-25.989l70.517,25.988L176.791,68.84z" class="svgShape color491352-11 selectable"></path></svg></g></svg>