<svg id="SvgjsSvg1084" width="288" height="288" xmlns="http://www.w3.org/2000/svg" version="1.1" xmlns:xlink="http://www.w3.org/1999/xlink" xmlns:svgjs="http://svgjs.com/svgjs"><defs id="SvgjsDefs1085"></defs><g id="SvgjsG1086"><svg xmlns="http://www.w3.org/2000/svg" enable-background="new 0 0 620.78 436" version="1.0" viewBox="0 0 620.78 436" width="288" height="288"><path fill="#9896a7" d="M264.14 190c.42.05.83.17 1.22.34.37.18.7.42 1 .7.4.38.77.78 1.12 1.21l31.12 39.34c-.13-1.25-.21-2.48-.27-3.66s-.09-2.3-.09-3.35v-34.73h13.4v65.52h-7.92c-1.03.03-2.05-.15-3-.54-.93-.47-1.73-1.15-2.34-2l-30.9-39c.1 1.13.17 2.25.23 3.35s.09 2.12.09 3.08v35.12h-13.4v-65.53h8c.56.01 1.12.05 1.67.13M333.7 208.73v29.58c-.12 1.91.43 3.81 1.57 5.35 1.17 1.31 2.88 2.01 4.63 1.89 1.49.01 2.95-.31 4.3-.94 1.42-.67 2.73-1.55 3.89-2.61v-33.27h13.94v46.62h-8.64c-1.55.13-2.99-.85-3.43-2.34l-.84-2.7c-.87.85-1.81 1.65-2.79 2.37-.96.7-1.99 1.31-3.08 1.8-1.15.51-2.34.91-3.57 1.18-1.36.3-2.74.44-4.13.43-2.32.04-4.62-.41-6.75-1.33-1.92-.84-3.63-2.11-5-3.7-1.38-1.66-2.42-3.57-3.05-5.63-.71-2.3-1.04-4.7-1-7.1v-29.6L333.7 208.73zM371.02 255.37v-46.64h8.64c.77-.03 1.53.17 2.18.58.6.42 1.04 1.04 1.23 1.75l.75 2.52c.76-.8 1.57-1.55 2.43-2.25.84-.68 1.76-1.26 2.72-1.75 2.12-1.08 4.48-1.63 6.86-1.6 2.51-.1 4.98.67 7 2.18 1.9 1.53 3.35 3.54 4.2 5.82.74-1.38 1.71-2.63 2.86-3.69 1.09-.99 2.32-1.82 3.64-2.46 1.32-.63 2.7-1.1 4.13-1.4 1.43-.29 2.89-.44 4.35-.45 2.42-.04 4.83.37 7.1 1.2 1.98.73 3.76 1.92 5.2 3.46 1.44 1.61 2.52 3.52 3.17 5.58.76 2.43 1.12 4.96 1.08 7.5v29.63h-14v-29.61c0-4.83-2.07-7.25-6.2-7.24-1.76-.05-3.46.62-4.7 1.87-1.33 1.46-2 3.4-1.86 5.37v29.63h-13.89v-29.63c0-2.67-.52-4.54-1.57-5.63-1.26-1.15-2.94-1.73-4.64-1.61-1.24 0-2.46.29-3.57.85-1.16.6-2.23 1.37-3.17 2.29v33.74L371.02 255.37zM461.85 233.47v21.9h-15.2v-65.52h23.11c4.03-.09 8.04.46 11.9 1.63 3.01.92 5.79 2.45 8.18 4.5 2.1 1.85 3.73 4.18 4.75 6.79 1.02 2.7 1.53 5.56 1.5 8.45.03 3.07-.5 6.12-1.58 9-1.02 2.68-2.67 5.08-4.81 7-2.38 2.08-5.18 3.63-8.2 4.56-3.8 1.17-7.76 1.74-11.74 1.67L461.85 233.47zM461.85 222h7.91c4 0 6.81-.93 8.55-2.83s2.61-4.5 2.61-7.91c.02-1.39-.21-2.78-.68-4.09-.42-1.2-1.1-2.28-2-3.17-.99-.93-2.18-1.63-3.47-2.05-1.61-.52-3.3-.78-5-.75h-7.91L461.85 222zM523.09 267.47c-.32.79-.84 1.47-1.5 2-.87.5-1.88.73-2.88.65h-10.45l9-18.88-18.61-42.55h12.32c1.67-.13 3.22.88 3.78 2.46l7.64 20.1c.71 1.81 1.29 3.66 1.76 5.55.3-1 .62-1.9 1-2.82s.71-1.88 1-2.84l6.93-20c.26-.72.76-1.33 1.41-1.73.67-.45 1.45-.69 2.25-.7h11.25L523.09 267.47z" class="svgShape color4d77cf-0 selectable"></path><polygon fill="#9896a7" points="139.04 168.54 111.2 154.49 80.64 169.74 109.24 184.1" class="svgShape color4dabcf-1 selectable"></polygon><polygon fill="#9896a7" points="151.81 174.98 181 189.72 150.72 204.93 122.08 190.55" class="svgShape color4dabcf-2 selectable"></polygon><polygon fill="#9896a7" points="190.8 154.7 220.79 169.74 193.96 183.2 164.72 168.45" class="svgShape color4dabcf-3 selectable"></polygon><polygon fill="#9896a7" points="177.89 148.22 150.89 134.68 124.18 148.01 152.01 162.04" class="svgShape color4dabcf-4 selectable"></polygon><polygon fill="#9896a7" points="156.78 264.48 156.78 301.32 189.49 285 189.46 248.14" class="svgShape color4dabcf-5 selectable"></polygon><polygon fill="#9896a7" points="189.44 235.28 189.41 198.81 156.78 215.02 156.78 251.51" class="svgShape color4dabcf-6 selectable"></polygon><polygon fill="#9896a7" points="228.71 228.45 228.71 265.43 200.81 279.35 200.79 242.53" class="svgShape color4dabcf-7 selectable"></polygon><polygon fill="#9896a7" points="228.71 215.51 228.71 179.27 200.76 193.16 200.78 229.71" class="svgShape color4dabcf-8 selectable"></polygon><path fill="#868690" d="M145.24,215l-22-11.08v47.87c0,0-26.95-57.33-29.44-62.48c-0.53-0.68-1.22-1.22-2-1.57
		c-4.86-2.54-19-9.71-19-9.71v84.6l19.59,10.52v-44.24c0,0,26.63,51.22,26.9,51.79c0.27,0.57,2.94,5.95,5.81,7.85
		c3.8,2.52,20.12,12.34,20.12,12.34L145.24,215z" class="svgShape color4d77cf-9 selectable"></path></svg></g></svg>